<?xml version="1.0" encoding="UTF-8"?>
<svg width="752pt" height="752pt" version="1.1" viewBox="0 0 752 752" xmlns="http://www.w3.org/2000/svg">
 <path d="m376.01 161.41c-56.188 0-107.35 21.738-145.57 57.262-0.27344 0.19531-0.53516 0.40625-0.77734 0.63672-0.070312 0.089844-0.14062 0.17969-0.20312 0.27344-41.621 39.168-67.637 94.797-67.637 156.45 0 61.625 25.992 117.2 67.582 156.35h-0.003906c0.082031 0.125 0.16797 0.24219 0.26172 0.36328 0.3125 0.30859 0.65625 0.58984 1.0234 0.83594 38.191 35.371 89.254 57.016 145.32 57.016 56.539 0 107.98-22.008 146.27-57.91 0.011719-0.015625 0.019531-0.03125 0.03125-0.046875 41.75-39.164 67.871-94.844 67.871-156.61 0-61.703-26.059-117.38-67.738-156.55l-0.003906 0.003907c-0.054687-0.058594-0.10547-0.11719-0.16016-0.17188-0.11328-0.10156-0.22656-0.19922-0.34766-0.28906-38.258-35.73-89.555-57.609-145.93-57.609zm-5.5195 15.191v95.82c-23.637-0.65625-46.781-5.5156-68.418-14.18 3.125-9.1484 6.582-17.699 10.348-25.551 15.973-33.309 36.719-53.156 58.07-56.09zm14.801 0.69531c20.012 4.6289 39.266 24.051 54.297 55.398 3.7656 7.8555 7.2266 16.406 10.348 25.551-20.484 8.2031-42.32 13.004-64.645 14.047zm-55.062 4.207c-11.961 11.219-22.469 26.609-31.191 44.797-3.8594 8.0469-7.3906 16.703-10.578 25.871-15.121-7.4102-29.336-16.738-42.277-27.863 23.797-20.465 52.469-35.387 84.043-42.809zm91.527 0c31.586 7.418 60.27 22.34 84.07 42.809-12.953 11.137-27.18 20.48-42.316 27.895-3.1914-9.1797-6.7305-17.844-10.594-25.898-8.7227-18.188-19.219-33.582-31.16-44.805zm94.996 52.926c34.605 34.547 56.57 81.773 58.477 134.18h-92.555c-0.61328-37.223-5.8086-72.035-14.598-102.15 17.484-8.3438 33.875-19.09 48.676-32.027zm-281.51 0.042968c14.793 12.918 31.172 23.645 48.648 31.984-8.7891 30.117-13.984 64.926-14.598 102.15l-92.512-0.003906c1.9062-52.383 23.879-99.59 58.461-134.13zm219.1 37.969c8.0117 28.211 12.922 61.035 13.527 96.168l-82.582-0.003906v-81.496c23.832-1.0352 47.156-6.043 69.055-14.668zm-156.7 0.015625c23.062 9.082 47.699 14.137 72.84 14.785v81.367l-86.398-0.003906c0.60938-35.125 5.5312-67.949 13.555-96.152zm-120.87 110.95h92.512c0.60938 37.242 5.8047 72.066 14.598 102.2-17.473 8.3359-33.844 19.066-48.633 31.984-34.605-34.543-56.582-81.766-58.477-134.18zm107.31 0 86.398-0.007812v81.41c-25.141 0.64844-49.766 5.707-72.828 14.785-8.0352-28.211-12.961-61.039-13.57-96.195zm101.2 0h82.582c-0.60547 35.16-5.5195 67.996-13.543 96.211-21.895-8.625-45.215-13.633-69.039-14.668zm97.383 0h92.555c-1.8945 52.422-23.867 99.652-58.488 134.2-14.797-12.926-31.184-23.672-48.664-32.012 8.793-30.129 13.988-64.953 14.598-102.2zm-112.18 96.219v95.762c-21.352-2.9375-42.098-22.785-58.07-56.094-3.7656-7.8477-7.2266-16.383-10.348-25.523 21.637-8.6484 44.781-13.492 68.418-14.148zm14.801 0.13281c22.328 1.043 44.152 5.8359 64.633 14.035-3.1172 9.1328-6.5703 17.664-10.332 25.508-15.031 31.344-34.285 50.77-54.297 55.398zm-96.848 20.07c3.1914 9.1875 6.7266 17.852 10.594 25.914 8.7148 18.172 19.215 33.539 31.16 44.746-31.566-7.4219-60.227-22.348-84.016-42.797 12.938-11.121 27.145-20.465 42.262-27.863zm175.08 0c15.117 7.4062 29.332 16.754 42.273 27.879-23.793 20.449-52.457 35.379-84.027 42.793 11.938-11.207 22.426-26.578 31.145-44.758 3.8672-8.0625 7.4141-16.727 10.609-25.914z" fill="#2264a5" fill-rule="evenodd"/>
</svg>
